<svg xmlns="http://www.w3.org/2000/svg" xmlns:xlink="http://www.w3.org/1999/xlink" version="1.1" x="0px" y="0px" viewBox="0 0 100 125" enable-background="new 0 0 100 100" xml:space="preserve"><g><path d="M85.4,64H29.9c-0.7,0-1.3-0.5-1.5-1.2l-7.8-34.1L6,26.7c-0.8-0.1-1.4-0.9-1.3-1.7c0.1-0.8,0.9-1.4,1.7-1.3l15.6,2.3   c0.6,0.1,1.1,0.5,1.3,1.2L31.1,61h53.2l8.5-30.5c0.2-0.8,1.1-1.3,1.9-1c0.8,0.2,1.3,1.1,1,1.9l-8.8,31.6C86.7,63.6,86.1,64,85.4,64   z"/></g><g><path d="M36.9,71.2c2.2,0,4,1.8,4,4c0,2.2-1.8,4-4,4c-2.2,0-4-1.8-4-4C32.9,73,34.7,71.2,36.9,71.2 M36.9,68.2c-3.9,0-7,3.1-7,7   c0,3.9,3.1,7,7,7s7-3.1,7-7C43.9,71.4,40.8,68.2,36.9,68.2L36.9,68.2z"/></g><g><path d="M78,71.2c2.2,0,4,1.8,4,4c0,2.2-1.8,4-4,4c-2.2,0-4-1.8-4-4C74,73,75.8,71.2,78,71.2 M78,68.2c-3.9,0-7,3.1-7,7   c0,3.9,3.1,7,7,7s7-3.1,7-7C85,71.4,81.9,68.2,78,68.2L78,68.2z"/></g></svg>
